<?xml version="1.0" encoding="utf-8"?>
<!-- Generator: Adobe Illustrator 24.2.0, SVG Export Plug-In . SVG Version: 6.00 Build 0)  -->
<svg version="1.1" id="Layer_1" xmlns="http://www.w3.org/2000/svg" xmlns:xlink="http://www.w3.org/1999/xlink" x="0px" y="0px"
	 viewBox="0 0 837.33 244.98" style="enable-background:new 0 0 837.33 244.98;" xml:space="preserve">
<style type="text/css">
	.st0{fill:#FFFFFF;}
</style>
<g>
	<path d="M300.23,159.13V88.67h13.23l66.41,60.64l-15.62-8.3h6.3V88.67h14.36v70.46h-13.33l-66.41-60.89l15.72,8.35h-6.35v52.54
		H300.23z"/>
	<path d="M419.69,159.13l39.45-38.96l-3.81,7.86v-4.2l-35.45-35.16h18.6l27.34,27.44h5.71l-8.98,3.91l30.91-31.35h18.26
		l-35.94,35.16v4.15l-3.86-7.91l39.4,39.06h-18.36l-27.29-26.81h-5.66l9.18-3.86l-31.69,30.66H419.69z"/>
	<path d="M576.07,159.13v-58.79h-33.74V88.67h82.28v11.67h-33.74v58.79H576.07z"/>
	<path d="M659.79,159.13V88.67h14.75v70.46H659.79z"/>
	<path d="M713.97,159.13V88.67h13.23l66.41,60.64l-15.62-8.3h6.3V88.67h14.36v70.46h-13.33L718.9,98.24l15.72,8.35h-6.35v52.54
		H713.97z"/>
	<g>
		<path d="M212.7,173.17c-0.01-9.74,0-19.48,0-29.21c0-29.53-0.01-59.05,0.01-88.58c0-4.62-0.79-8.91-4.16-12.42
			c-4.4-4.58-11.64-6.57-17.18-4.4c-3.55,1.39-6.57,3.74-9.64,5.97c-8.65,6.3-17.28,12.64-25.93,18.94
			c-6,4.37-12.01,8.73-18.01,13.09c-3.46,2.61-6.92,5.22-10.38,7.84c-0.42,0.32-0.82,0.59-1.37,0.56c-5.2-3.65-10.4-7.3-15.61-10.95
			c-10.18-7.13-20.35-14.27-30.55-21.37c-5.69-3.96-11.25-8.1-17.09-11.83c-3.55-2.27-7.37-3.23-11.62-2.3
			c-7.66,1.67-12.48,8.07-12.47,15.64c0.09,40.2,0.04,80.4,0.04,120.59c0,5.9-0.03,11.81,0.01,17.71c0.01,2.19,0.14,4.42,1.07,6.43
			c3.29,7.15,12.73,10.28,19.44,5.89c5.13-3.37,10.07-6.99,15.08-10.53c10.59-7.49,21.14-15.03,31.71-22.56
			c4.01-2.86,7.99-5.74,11.98-8.62v0c0.22-0.07,0.49-0.08,0.64-0.23c1.77-1.63,3.89-2.79,5.77-4.26c0.53-0.41,1.02-0.49,1.57-0.1
			c-0.06-0.07-0.12-0.14-0.17-0.22c0.07,0.06,0.13,0.13,0.17,0.22c5.3,3.85,10.6,7.7,15.91,11.54
			c15.62,11.32,31.24,22.63,46.86,33.95c4.05,2.93,8.52,4.11,13.39,2.77c5.42-1.5,9.09-4.87,10.13-10.62
			c0.46-2.55,0.48-5.14,0.49-7.71C212.8,183.34,212.71,178.25,212.7,173.17z M136.94,90.36c1.78-1.34,3.57-2.66,5.35-3.98
			c4.82-3.39,9.65-6.78,14.47-10.19c7.78-5.5,15.56-11.02,23.33-16.53c2.71-1.92,5.41-3.85,8.11-5.78c0.19-0.14,0.38-0.27,0.58-0.4
			c0.65-0.41,1.32-0.8,2.03-0.18c0.73,0.63,0.36,1.31,0.04,2.01c-3.89,8.6-7.75,17.22-11.65,25.82c-3.78,8.32-7.59,16.62-11.4,24.92
			c-0.23,0.49-0.52,0.96-0.83,1.41c-0.73,1.07-1.54,1.74-2.45,2c-0.68,0.27-1.42,0.27-2.22-0.02c-0.96-0.35-1.85-0.83-2.69-1.42
			c-0.28-0.2-0.57-0.4-0.85-0.6c-0.71-0.47-1.4-0.97-2.09-1.47c-6.63-4.66-13.22-9.39-19.85-14.06c0.01-0.01,0.02-0.02,0.04-0.03
			c-0.17-0.12-0.33-0.24-0.5-0.36C135.93,90.83,136.56,90.64,136.94,90.36z M62.74,55.91c0.95-0.79,2.35-0.85,3.49-0.06
			c2.57,1.77,5.11,3.58,7.65,5.38c9.84,6.96,19.68,13.91,29.52,20.87c11.85,8.38,23.7,16.77,35.55,25.16
			c1.02,0.72,2.03,1.46,2.99,2.24c1.07,0.87,1.27,2.06,0.86,3.3c-0.41,1.25-1.36,1.98-2.68,2.14c-0.43,0.05-0.86,0.06-1.29,0.06
			c-7.86,0-15.72,0-23.57,0c0-0.02,0-0.03,0-0.05c-7.86,0-15.71-0.05-23.57,0.03c-2.7,0.03-4.47-1.12-5.56-3.48
			c-1.43-3.08-2.85-6.17-4.25-9.27c-2.08-4.59-4.15-9.18-6.22-13.77c-2.91-6.44-5.83-12.88-8.75-19.32
			c-1.32-2.92-2.66-5.82-3.99-8.74c-0.21-0.46-0.44-0.92-0.62-1.39C61.73,57.61,61.88,56.63,62.74,55.91z M54.16,172.47
			c-0.43,0.96-1.18,1.5-2.23,1.36c-1.1-0.16-1.71-0.88-1.77-2.01c-0.03-0.51-0.04-1.02-0.04-1.52c0-16.58,0-33.17,0-49.75
			s0-33.17,0-49.75c0-0.55,0.04-1.09,0.07-1.64c0.07-1,0.66-1.62,1.59-1.77c0.95-0.15,1.77,0.19,2.21,1.16
			c1.88,4.12,3.78,8.24,5.66,12.36c3.3,7.25,6.6,14.51,9.89,21.77c2.56,5.66,5.11,11.32,7.68,16.98c0.36,0.8,0.21,1.52-0.12,2.25
			c-2.37,5.23-4.76,10.45-7.13,15.68c-2.91,6.4-5.82,12.8-8.73,19.2C58.88,162,56.53,167.23,54.16,172.47z M115.11,151.12
			c-0.09,0.04-0.18,0.08-0.28,0.12c0,0,0,0,0,0c-1.73,0.83-3.37,1.81-4.92,2.94c-0.44,0.33-0.87,0.66-1.3,1
			c-0.18,0.15-0.36,0.29-0.54,0.44c-0.07,0.06-0.15,0.11-0.23,0.17c-0.11,0.09-0.22,0.18-0.33,0.26c0,0-0.01,0-0.01,0.01
			c-0.05,0.05-0.09,0.11-0.11,0.17c-0.08,0.02-0.15,0.04-0.22,0.07c-3.55,2.52-7.12,5.02-10.66,7.56
			c-10.42,7.46-20.82,14.94-31.24,22.41c-0.44,0.32-0.83,0.54-1.18,0.69c-0.3,0.14-0.61,0.23-0.92,0.21
			c-0.51-0.01-0.97-0.24-1.45-0.69c-0.67-0.62-0.79-1.29-0.42-2.11c1.82-4.02,3.63-8.04,5.45-12.05c2.89-6.4,5.79-12.81,8.69-19.21
			c1.64-3.63,3.3-7.25,4.96-10.87c1.43-3.12,2.84-6.26,4.34-9.34c0.84-1.72,2.36-2.18,4.14-1.44c2.2,0.91,3.96,2.49,5.86,3.84
			c6.56,4.65,13.08,9.36,19.6,14.05c0.38,0.27,0.72,0.6,1.08,0.89C115.66,150.64,115.59,150.93,115.11,151.12z M189.57,186.72
			c-0.83,0.65-1.62,0.5-2.46-0.1c-5.18-3.68-10.38-7.32-15.57-10.99c-6.08-4.3-12.15-8.62-18.23-12.92
			c-8.76-6.2-17.52-12.4-26.28-18.59c-6.53-4.62-13.08-9.23-19.61-13.84c-0.84-0.59-1.7-1.18-1.42-2.44
			c0.25-1.11,0.89-1.6,2.23-1.61c4.34-0.03,8.68-0.05,13.02-0.06c4.38-0.01,8.76,0,13.14,0c0,0.02,0,0.04,0,0.06
			c8.48,0,16.97,0.03,25.45-0.02c2.58-0.01,4.4,0.97,5.48,3.38c2.64,5.88,5.33,11.74,8,17.6c2.48,5.44,4.96,10.87,7.43,16.31
			c2.85,6.29,5.69,12.6,8.53,18.89c0.3,0.68,0.63,1.34,0.91,2.03C190.56,185.34,190.33,186.13,189.57,186.72z M201.35,119.08
			c0,16.03,0,32.06,0,48.1c0,0.74-0.05,1.48-0.12,2.22c-0.12,1.32-0.81,2.14-1.91,2.34c-1.14,0.21-2.3-0.3-2.84-1.41
			c-1.08-2.21-2.08-4.46-3.1-6.69c-2.92-6.43-5.84-12.87-8.75-19.31c-2.9-6.4-5.62-12.89-8.77-19.17c-1.67-3.32-1.5-6.08,0.09-9.37
			c4.49-9.32,8.66-18.79,12.93-28.22c2.66-5.87,5.26-11.76,7.89-17.64c0.35-0.78,0.79-1.52,1.35-2.19c0.52-0.62,1.12-0.98,1.94-0.7
			c0.8,0.28,1.14,0.91,1.18,1.71c0.05,1.37,0.12,2.73,0.12,4.1C201.35,88.27,201.35,103.68,201.35,119.08z"/>
		<rect x="113.5" y="114.92" width="28.06" height="1.22"/>
		<rect x="94.74" y="154.84" transform="matrix(0.7992 -0.6011 0.6011 0.7992 -71.5979 96.5884)" width="28.06" height="1.22"/>
		<rect x="105.41" y="160.97" transform="matrix(0.8254 -0.5645 0.5645 0.8254 -70.3641 95.6386)" width="28.06" height="1.22"/>
		<rect x="114.03" y="124.94" transform="matrix(1 6.461854e-03 -6.461854e-03 1 0.8139 -0.8006)" width="20.54" height="1.22"/>
	</g>
</g>
<g>
	<path class="st0" d="M287.52-104.69v-70.46h13.23l66.41,60.64l-15.62-8.3h6.3v-52.34h14.36v70.46h-13.33l-66.41-60.89l15.72,8.35
		h-6.35v52.54H287.52z"/>
	<path class="st0" d="M406.98-104.69l39.45-38.96l-3.81,7.86v-4.2l-35.45-35.16h18.6l27.34,27.44h5.71l-8.98,3.91l30.91-31.35h18.26
		l-35.94,35.16v4.15l-3.86-7.91l39.4,39.06h-18.36l-27.29-26.81h-5.66l9.18-3.86l-31.69,30.66H406.98z"/>
	<path class="st0" d="M563.36-104.69v-58.79h-33.74v-11.67h82.28v11.67h-33.74v58.79H563.36z"/>
	<path class="st0" d="M647.08-104.69v-70.46h14.75v70.46H647.08z"/>
	<path class="st0" d="M701.26-104.69v-70.46h13.23l66.41,60.64l-15.62-8.3h6.3v-52.34h14.36v70.46H772.6l-66.41-60.89l15.72,8.35
		h-6.35v52.54H701.26z"/>
	<g>
		<path class="st0" d="M199.99-90.64c-0.01-9.74,0-19.48,0-29.21c0-29.53-0.01-59.05,0.01-88.58c0-4.62-0.79-8.91-4.16-12.42
			c-4.4-4.58-11.64-6.57-17.18-4.4c-3.55,1.39-6.57,3.74-9.64,5.97c-8.65,6.3-17.28,12.64-25.93,18.94
			c-6,4.37-12.01,8.73-18.01,13.09c-3.46,2.61-6.92,5.22-10.38,7.84c-0.42,0.32-0.82,0.59-1.37,0.56c-5.2-3.65-10.4-7.3-15.61-10.95
			c-10.18-7.13-20.35-14.27-30.55-21.37c-5.69-3.96-11.25-8.1-17.09-11.83c-3.55-2.27-7.37-3.23-11.62-2.3
			c-7.66,1.67-12.48,8.07-12.47,15.64c0.09,40.2,0.04,80.4,0.04,120.59c0,5.9-0.03,11.81,0.01,17.71c0.01,2.19,0.14,4.42,1.07,6.43
			c3.29,7.15,12.73,10.28,19.44,5.89c5.13-3.37,10.07-6.99,15.08-10.53c10.59-7.49,21.14-15.03,31.71-22.56
			c4.01-2.86,7.99-5.74,11.98-8.62v0c0.22-0.07,0.49-0.08,0.64-0.23c1.77-1.63,3.89-2.79,5.77-4.26c0.53-0.41,1.02-0.49,1.57-0.1
			c-0.06-0.07-0.12-0.14-0.17-0.22c0.07,0.06,0.13,0.13,0.17,0.22c5.3,3.85,10.6,7.7,15.91,11.54
			c15.62,11.32,31.24,22.63,46.86,33.95c4.05,2.93,8.52,4.11,13.39,2.77c5.42-1.5,9.09-4.87,10.13-10.62
			c0.46-2.55,0.48-5.14,0.49-7.71C200.09-80.48,200-85.56,199.99-90.64z M124.22-173.46c1.78-1.34,3.57-2.66,5.35-3.98
			c4.82-3.39,9.65-6.78,14.47-10.19c7.78-5.5,15.56-11.02,23.33-16.53c2.71-1.92,5.41-3.85,8.11-5.78c0.19-0.14,0.38-0.27,0.58-0.4
			c0.65-0.41,1.32-0.8,2.03-0.18c0.73,0.63,0.36,1.31,0.04,2.01c-3.89,8.6-7.75,17.22-11.65,25.82c-3.78,8.32-7.59,16.62-11.4,24.92
			c-0.23,0.49-0.52,0.96-0.83,1.41c-0.73,1.07-1.54,1.74-2.45,2c-0.68,0.27-1.42,0.27-2.22-0.02c-0.96-0.35-1.85-0.83-2.69-1.42
			c-0.28-0.2-0.57-0.4-0.85-0.6c-0.71-0.47-1.4-0.97-2.09-1.47c-6.63-4.66-13.22-9.39-19.85-14.06c0.01-0.01,0.02-0.02,0.04-0.03
			c-0.17-0.12-0.33-0.24-0.5-0.36C123.22-172.98,123.85-173.18,124.22-173.46z M50.03-207.9c0.95-0.79,2.35-0.85,3.49-0.06
			c2.57,1.77,5.11,3.58,7.65,5.38c9.84,6.96,19.68,13.91,29.52,20.87c11.85,8.38,23.7,16.77,35.55,25.16
			c1.02,0.72,2.03,1.46,2.99,2.24c1.07,0.87,1.27,2.06,0.86,3.3c-0.41,1.25-1.36,1.98-2.68,2.14c-0.43,0.05-0.86,0.06-1.29,0.06
			c-7.86,0-15.72,0-23.57,0c0-0.02,0-0.03,0-0.05c-7.86,0-15.71-0.05-23.57,0.03c-2.7,0.03-4.47-1.12-5.56-3.48
			c-1.43-3.08-2.85-6.17-4.25-9.27c-2.08-4.59-4.15-9.18-6.22-13.77c-2.91-6.44-5.83-12.88-8.75-19.32
			c-1.32-2.92-2.66-5.82-3.99-8.74c-0.21-0.46-0.44-0.92-0.62-1.39C49.02-206.21,49.17-207.19,50.03-207.9z M41.45-91.35
			c-0.43,0.96-1.18,1.5-2.23,1.36c-1.1-0.16-1.71-0.88-1.77-2.01c-0.03-0.51-0.04-1.02-0.04-1.52c0-16.58,0-33.17,0-49.75
			s0-33.17,0-49.75c0-0.55,0.04-1.09,0.07-1.64c0.07-1,0.66-1.62,1.59-1.77c0.95-0.15,1.77,0.19,2.21,1.16
			c1.88,4.12,3.78,8.24,5.66,12.36c3.3,7.25,6.6,14.51,9.89,21.77c2.56,5.66,5.11,11.32,7.68,16.98c0.36,0.8,0.21,1.52-0.12,2.25
			c-2.37,5.23-4.76,10.45-7.13,15.68c-2.91,6.4-5.82,12.8-8.73,19.2C46.17-101.82,43.81-96.58,41.45-91.35z M102.4-112.69
			c-0.09,0.04-0.18,0.08-0.28,0.12c0,0,0,0,0,0c-1.73,0.83-3.37,1.81-4.92,2.94c-0.44,0.33-0.87,0.66-1.3,1
			c-0.18,0.15-0.36,0.29-0.54,0.44c-0.07,0.06-0.15,0.11-0.23,0.17c-0.11,0.09-0.22,0.18-0.33,0.26c0,0-0.01,0-0.01,0.01
			c-0.05,0.05-0.08,0.11-0.11,0.17c-0.08,0.02-0.15,0.04-0.22,0.07c-3.55,2.52-7.12,5.02-10.66,7.56
			C73.41-92.51,63-85.03,52.59-77.56c-0.44,0.32-0.83,0.54-1.18,0.69c-0.3,0.14-0.61,0.23-0.92,0.21c-0.51-0.01-0.97-0.24-1.45-0.69
			c-0.67-0.62-0.79-1.29-0.42-2.11c1.82-4.02,3.63-8.04,5.45-12.05c2.89-6.4,5.79-12.81,8.69-19.21c1.64-3.63,3.3-7.25,4.96-10.87
			c1.43-3.12,2.84-6.26,4.34-9.34c0.84-1.72,2.36-2.18,4.14-1.44c2.2,0.91,3.96,2.49,5.86,3.84c6.56,4.65,13.08,9.36,19.6,14.05
			c0.38,0.27,0.72,0.6,1.08,0.89C102.94-113.17,102.88-112.89,102.4-112.69z M176.86-77.09c-0.83,0.65-1.62,0.5-2.46-0.1
			c-5.18-3.68-10.38-7.32-15.57-10.99c-6.08-4.3-12.15-8.62-18.23-12.92c-8.76-6.2-17.52-12.4-26.28-18.59
			c-6.53-4.62-13.08-9.23-19.61-13.84c-0.84-0.59-1.7-1.18-1.42-2.44c0.25-1.11,0.89-1.6,2.23-1.61c4.34-0.03,8.68-0.05,13.02-0.06
			c4.38-0.01,8.76,0,13.14,0c0,0.02,0,0.04,0,0.06c8.48,0,16.97,0.03,25.45-0.02c2.58-0.01,4.4,0.97,5.48,3.38
			c2.64,5.88,5.33,11.74,8,17.6c2.48,5.44,4.96,10.87,7.43,16.31c2.85,6.29,5.69,12.6,8.53,18.89c0.3,0.68,0.63,1.34,0.91,2.03
			C177.85-78.48,177.62-77.69,176.86-77.09z M188.64-144.73c0,16.03,0,32.06,0,48.1c0,0.74-0.05,1.48-0.12,2.22
			c-0.12,1.32-0.81,2.14-1.91,2.34c-1.14,0.21-2.3-0.3-2.84-1.41c-1.08-2.21-2.08-4.46-3.1-6.69c-2.92-6.43-5.84-12.87-8.75-19.31
			c-2.9-6.4-5.62-12.89-8.77-19.17c-1.67-3.32-1.5-6.08,0.09-9.37c4.49-9.32,8.66-18.79,12.93-28.22
			c2.66-5.87,5.26-11.76,7.89-17.64c0.35-0.78,0.79-1.52,1.35-2.19c0.52-0.62,1.12-0.98,1.94-0.7c0.8,0.28,1.14,0.91,1.18,1.71
			c0.05,1.37,0.12,2.73,0.12,4.1C188.64-175.55,188.64-160.14,188.64-144.73z"/>
		<rect x="100.79" y="-148.89" class="st0" width="28.06" height="1.22"/>
		
			<rect x="82.03" y="-108.97" transform="matrix(0.7992 -0.6011 0.6011 0.7992 84.4165 35.9762)" class="st0" width="28.06" height="1.22"/>
		
			<rect x="92.7" y="-102.85" transform="matrix(0.8254 -0.5645 0.5645 0.8254 76.3492 42.4027)" class="st0" width="28.06" height="1.22"/>
		
			<rect x="101.31" y="-138.87" transform="matrix(1 6.461854e-03 -6.461854e-03 1 -0.8911 -0.7239)" class="st0" width="20.54" height="1.22"/>
	</g>
</g>
</svg>
